<mxfile host="app.diagrams.net" modified="2024-06-28T21:14:58.637Z" agent="Mozilla/5.0 (Macintosh; Intel Mac OS X 10_15_7) AppleWebKit/605.1.15 (KHTML, like Gecko) Version/17.5 Safari/605.1.15" etag="yNgjXJOFg2M7sYP--sez" version="24.6.4" type="device">
  <diagram name="Page-1" id="Y-qtSBzgZtqOqkQaNCEQ">
    <mxGraphModel dx="2021" dy="749" grid="1" gridSize="10" guides="1" tooltips="1" connect="1" arrows="1" fold="1" page="1" pageScale="1" pageWidth="827" pageHeight="1169" math="0" shadow="0">
      <root>
        <mxCell id="0" />
        <mxCell id="1" parent="0" />
        <mxCell id="6-Fc7FL_gjs3nGVKd17d-5" value="User" style="ellipse;whiteSpace=wrap;html=1;" vertex="1" parent="1">
          <mxGeometry x="280" y="170" width="120" height="80" as="geometry" />
        </mxCell>
        <mxCell id="6-Fc7FL_gjs3nGVKd17d-6" value="Comments" style="ellipse;whiteSpace=wrap;html=1;" vertex="1" parent="1">
          <mxGeometry x="570" y="300" width="120" height="80" as="geometry" />
        </mxCell>
        <mxCell id="6-Fc7FL_gjs3nGVKd17d-7" value="Questions" style="ellipse;whiteSpace=wrap;html=1;" vertex="1" parent="1">
          <mxGeometry x="-40" y="170" width="120" height="80" as="geometry" />
        </mxCell>
        <mxCell id="6-Fc7FL_gjs3nGVKd17d-8" value="Answers" style="ellipse;whiteSpace=wrap;html=1;" vertex="1" parent="1">
          <mxGeometry x="570" y="170" width="120" height="80" as="geometry" />
        </mxCell>
        <mxCell id="6-Fc7FL_gjs3nGVKd17d-9" value="Like/Dislike" style="rhombus;whiteSpace=wrap;html=1;" vertex="1" parent="1">
          <mxGeometry x="130" y="70" width="80" height="80" as="geometry" />
        </mxCell>
        <mxCell id="6-Fc7FL_gjs3nGVKd17d-10" value="Like/Dislike" style="rhombus;whiteSpace=wrap;html=1;" vertex="1" parent="1">
          <mxGeometry x="460" y="70" width="80" height="80" as="geometry" />
        </mxCell>
        <mxCell id="6-Fc7FL_gjs3nGVKd17d-12" value="" style="endArrow=none;html=1;rounded=0;entryX=0;entryY=0.5;entryDx=0;entryDy=0;exitX=1;exitY=0.5;exitDx=0;exitDy=0;" edge="1" parent="1" source="6-Fc7FL_gjs3nGVKd17d-7" target="6-Fc7FL_gjs3nGVKd17d-9">
          <mxGeometry width="50" height="50" relative="1" as="geometry">
            <mxPoint x="120" y="310" as="sourcePoint" />
            <mxPoint x="170" y="260" as="targetPoint" />
          </mxGeometry>
        </mxCell>
        <mxCell id="6-Fc7FL_gjs3nGVKd17d-16" value="" style="endArrow=none;html=1;rounded=0;entryX=0;entryY=0.5;entryDx=0;entryDy=0;exitX=1;exitY=0.5;exitDx=0;exitDy=0;" edge="1" parent="1" source="6-Fc7FL_gjs3nGVKd17d-9" target="6-Fc7FL_gjs3nGVKd17d-5">
          <mxGeometry width="50" height="50" relative="1" as="geometry">
            <mxPoint x="120" y="240" as="sourcePoint" />
            <mxPoint x="180" y="240" as="targetPoint" />
          </mxGeometry>
        </mxCell>
        <mxCell id="6-Fc7FL_gjs3nGVKd17d-17" value="" style="endArrow=none;html=1;rounded=0;entryX=1;entryY=0.5;entryDx=0;entryDy=0;exitX=0;exitY=0.5;exitDx=0;exitDy=0;" edge="1" parent="1" source="6-Fc7FL_gjs3nGVKd17d-5" target="6-Fc7FL_gjs3nGVKd17d-7">
          <mxGeometry width="50" height="50" relative="1" as="geometry">
            <mxPoint x="240" y="220" as="sourcePoint" />
            <mxPoint x="290" y="220" as="targetPoint" />
          </mxGeometry>
        </mxCell>
        <mxCell id="6-Fc7FL_gjs3nGVKd17d-18" value="" style="endArrow=none;html=1;rounded=0;entryX=0;entryY=0.5;entryDx=0;entryDy=0;exitX=1;exitY=0.5;exitDx=0;exitDy=0;" edge="1" parent="1" source="6-Fc7FL_gjs3nGVKd17d-5" target="6-Fc7FL_gjs3nGVKd17d-8">
          <mxGeometry width="50" height="50" relative="1" as="geometry">
            <mxPoint x="350" y="260" as="sourcePoint" />
            <mxPoint x="478" y="422" as="targetPoint" />
          </mxGeometry>
        </mxCell>
        <mxCell id="6-Fc7FL_gjs3nGVKd17d-19" value="" style="endArrow=none;html=1;rounded=0;entryX=0.5;entryY=1;entryDx=0;entryDy=0;" edge="1" parent="1" source="6-Fc7FL_gjs3nGVKd17d-6" target="6-Fc7FL_gjs3nGVKd17d-8">
          <mxGeometry width="50" height="50" relative="1" as="geometry">
            <mxPoint x="410" y="220" as="sourcePoint" />
            <mxPoint x="580" y="220" as="targetPoint" />
          </mxGeometry>
        </mxCell>
        <mxCell id="6-Fc7FL_gjs3nGVKd17d-20" value="" style="endArrow=none;html=1;rounded=0;entryX=0.5;entryY=0;entryDx=0;entryDy=0;" edge="1" parent="1" target="6-Fc7FL_gjs3nGVKd17d-6">
          <mxGeometry width="50" height="50" relative="1" as="geometry">
            <mxPoint x="400" y="210" as="sourcePoint" />
            <mxPoint x="580" y="220" as="targetPoint" />
          </mxGeometry>
        </mxCell>
        <mxCell id="6-Fc7FL_gjs3nGVKd17d-22" value="" style="endArrow=none;html=1;rounded=0;entryX=0;entryY=0.5;entryDx=0;entryDy=0;exitX=1;exitY=0.5;exitDx=0;exitDy=0;" edge="1" parent="1">
          <mxGeometry width="50" height="50" relative="1" as="geometry">
            <mxPoint x="400" y="210" as="sourcePoint" />
            <mxPoint x="570" y="210" as="targetPoint" />
          </mxGeometry>
        </mxCell>
        <mxCell id="6-Fc7FL_gjs3nGVKd17d-23" value="" style="endArrow=none;html=1;rounded=0;exitX=1;exitY=0.5;exitDx=0;exitDy=0;" edge="1" parent="1" source="6-Fc7FL_gjs3nGVKd17d-5" target="6-Fc7FL_gjs3nGVKd17d-10">
          <mxGeometry width="50" height="50" relative="1" as="geometry">
            <mxPoint x="410" y="220" as="sourcePoint" />
            <mxPoint x="580" y="220" as="targetPoint" />
          </mxGeometry>
        </mxCell>
        <mxCell id="6-Fc7FL_gjs3nGVKd17d-24" value="" style="endArrow=none;html=1;rounded=0;exitX=0;exitY=0.5;exitDx=0;exitDy=0;entryX=1;entryY=1;entryDx=0;entryDy=0;" edge="1" parent="1" source="6-Fc7FL_gjs3nGVKd17d-8" target="6-Fc7FL_gjs3nGVKd17d-10">
          <mxGeometry width="50" height="50" relative="1" as="geometry">
            <mxPoint x="410" y="220" as="sourcePoint" />
            <mxPoint x="550" y="140" as="targetPoint" />
          </mxGeometry>
        </mxCell>
        <mxCell id="6-Fc7FL_gjs3nGVKd17d-25" value="1..*" style="text;html=1;align=center;verticalAlign=middle;resizable=0;points=[];autosize=1;strokeColor=none;fillColor=none;" vertex="1" parent="1">
          <mxGeometry x="230" y="188" width="40" height="30" as="geometry" />
        </mxCell>
        <mxCell id="6-Fc7FL_gjs3nGVKd17d-26" value="*..0" style="text;html=1;align=center;verticalAlign=middle;resizable=0;points=[];autosize=1;strokeColor=none;fillColor=none;" vertex="1" parent="1">
          <mxGeometry x="80" y="188" width="40" height="30" as="geometry" />
        </mxCell>
        <mxCell id="6-Fc7FL_gjs3nGVKd17d-27" value="1..1" style="text;html=1;align=center;verticalAlign=middle;resizable=0;points=[];autosize=1;strokeColor=none;fillColor=none;" vertex="1" parent="1">
          <mxGeometry x="400" y="188" width="40" height="30" as="geometry" />
        </mxCell>
        <mxCell id="6-Fc7FL_gjs3nGVKd17d-28" value="0..*" style="text;html=1;align=center;verticalAlign=middle;resizable=0;points=[];autosize=1;strokeColor=none;fillColor=none;" vertex="1" parent="1">
          <mxGeometry x="530" y="188" width="40" height="30" as="geometry" />
        </mxCell>
        <mxCell id="6-Fc7FL_gjs3nGVKd17d-29" value="1..1" style="text;html=1;align=center;verticalAlign=middle;resizable=0;points=[];autosize=1;strokeColor=none;fillColor=none;" vertex="1" parent="1">
          <mxGeometry x="630" y="240" width="40" height="30" as="geometry" />
        </mxCell>
        <mxCell id="6-Fc7FL_gjs3nGVKd17d-30" value="0..*" style="text;html=1;align=center;verticalAlign=middle;resizable=0;points=[];autosize=1;strokeColor=none;fillColor=none;" vertex="1" parent="1">
          <mxGeometry x="620" y="280" width="40" height="30" as="geometry" />
        </mxCell>
        <mxCell id="6-Fc7FL_gjs3nGVKd17d-31" value="1..1" style="text;html=1;align=center;verticalAlign=middle;resizable=0;points=[];autosize=1;strokeColor=none;fillColor=none;" vertex="1" parent="1">
          <mxGeometry x="394" y="210" width="40" height="30" as="geometry" />
        </mxCell>
        <mxCell id="6-Fc7FL_gjs3nGVKd17d-32" value="0..*" style="text;html=1;align=center;verticalAlign=middle;resizable=0;points=[];autosize=1;strokeColor=none;fillColor=none;" vertex="1" parent="1">
          <mxGeometry x="570" y="280" width="40" height="30" as="geometry" />
        </mxCell>
      </root>
    </mxGraphModel>
  </diagram>
</mxfile>
